REM DIRINDEX 1\3,1\4,1\5,1\6,1\2\7,1\2\8,1\2\9,1\10
REM DIRNAME folder01,folder02,folder03,folder04,folder05,folder06,folder07,folder08,folder09,folder10
TITLE ""
FILE "1-12 Level 1-099-111.mp3" MP3
  TRACK 01 AUDIO
    TITLE "0:"
    INDEX 01 00:00:00
  TRACK 02 AUDIO
    TITLE "7:cjc056_0319"
    INDEX 01 00:00:05
  TRACK 03 AUDIO
    TITLE "0:"
    INDEX 01 00:01:01
  TRACK 04 AUDIO
    TITLE "8:cjc056_0320"
    INDEX 01 00:01:13
  TRACK 05 AUDIO
    TITLE "0:"
    INDEX 01 00:02:47
  TRACK 06 AUDIO
    TITLE "9:cjc056_0321"
    INDEX 01 00:02:59
  TRACK 07 AUDIO
    TITLE "0:"
    INDEX 01 00:04:42
  TRACK 08 AUDIO
    TITLE "7:cjc056_0322"
    INDEX 01 00:05:34
  TRACK 09 AUDIO
    TITLE "0:"
    INDEX 01 00:06:35
  TRACK 10 AUDIO
    TITLE "8:cjc056_0323"
    INDEX 01 00:06:47
  TRACK 11 AUDIO
    TITLE "0:"
    INDEX 01 00:07:66
  TRACK 12 AUDIO
    TITLE "9:cjc056_0324"
    INDEX 01 00:08:05
  TRACK 13 AUDIO
    TITLE "0:"
    INDEX 01 00:09:59
  TRACK 14 AUDIO
    TITLE "7:cjc056_0325"
    INDEX 01 00:10:35
  TRACK 15 AUDIO
    TITLE "0:"
    INDEX 01 00:11:21
  TRACK 16 AUDIO
    TITLE "8:cjc056_0326"
    INDEX 01 00:11:52
  TRACK 17 AUDIO
    TITLE "0:"
    INDEX 01 00:12:71
  TRACK 18 AUDIO
    TITLE "9:cjc056_0327"
    INDEX 01 00:13:10
  TRACK 19 AUDIO
    TITLE "0:"
    INDEX 01 00:14:29
  TRACK 20 AUDIO
    TITLE "7:cjc056_0328"
    INDEX 01 00:15:05
  TRACK 21 AUDIO
    TITLE "0:"
    INDEX 01 00:16:00
  TRACK 22 AUDIO
    TITLE "8:cjc056_0329"
    INDEX 01 00:16:14
  TRACK 23 AUDIO
    TITLE "0:"
    INDEX 01 00:17:12
  TRACK 24 AUDIO
    TITLE "9:cjc056_0330"
    INDEX 01 00:17:23
  TRACK 25 AUDIO
    TITLE "0:"
    INDEX 01 00:18:50
  TRACK 26 AUDIO
    TITLE "7:cjc056_0331"
    INDEX 01 00:19:26
  TRACK 27 AUDIO
    TITLE "0:"
    INDEX 01 00:20:36
  TRACK 28 AUDIO
    TITLE "8:cjc056_0332"
    INDEX 01 00:20:45
  TRACK 29 AUDIO
    TITLE "0:"
    INDEX 01 00:22:17
  TRACK 30 AUDIO
    TITLE "9:cjc056_0333"
    INDEX 01 00:22:34
  TRACK 31 AUDIO
    TITLE "0:"
    INDEX 01 00:25:27
  TRACK 32 AUDIO
    TITLE "7:cjc056_0334"
    INDEX 01 00:26:03
  TRACK 33 AUDIO
    TITLE "0:"
    INDEX 01 00:27:00
  TRACK 34 AUDIO
    TITLE "8:cjc056_0335"
    INDEX 01 00:27:12
  TRACK 35 AUDIO
    TITLE "0:"
    INDEX 01 00:28:62
  TRACK 36 AUDIO
    TITLE "9:cjc056_0336"
    INDEX 01 00:29:03
  TRACK 37 AUDIO
    TITLE "0:"
    INDEX 01 00:30:48
  TRACK 38 AUDIO
    TITLE "8:cjc056_0337"
    INDEX 01 00:30:71
  TRACK 39 AUDIO
    TITLE "0:"
    INDEX 01 00:32:43
  TRACK 40 AUDIO
    TITLE "9:cjc056_0338"
    INDEX 01 00:32:56
  TRACK 41 AUDIO
    TITLE "0:"
    INDEX 01 00:33:71
  TRACK 42 AUDIO
    TITLE "7:cjc056_0339"
    INDEX 01 00:34:49
  TRACK 43 AUDIO
    TITLE "0:"
    INDEX 01 00:35:53
  TRACK 44 AUDIO
    TITLE "8:cjc056_0340"
    INDEX 01 00:35:64
  TRACK 45 AUDIO
    TITLE "0:"
    INDEX 01 00:37:10
  TRACK 46 AUDIO
    TITLE "9:cjc056_0341"
    INDEX 01 00:37:24
  TRACK 47 AUDIO
    TITLE "0:"
    INDEX 01 00:38:67
  TRACK 48 AUDIO
    TITLE "7:cjc056_0342"
    INDEX 01 00:39:43
  TRACK 49 AUDIO
    TITLE "0:"
    INDEX 01 00:40:58
  TRACK 50 AUDIO
    TITLE "8:cjc056_0343"
    INDEX 01 00:40:72
  TRACK 51 AUDIO
    TITLE "0:"
    INDEX 01 00:42:08
  TRACK 52 AUDIO
    TITLE "9:cjc056_0344"
    INDEX 01 00:42:21
  TRACK 53 AUDIO
    TITLE "0:"
    INDEX 01 00:45:24
  TRACK 54 AUDIO
    TITLE "7:cjc056_0345"
    INDEX 01 00:46:00
  TRACK 55 AUDIO
    TITLE "0:"
    INDEX 01 00:47:07
  TRACK 56 AUDIO
    TITLE "8:cjc056_0346"
    INDEX 01 00:47:23
  TRACK 57 AUDIO
    TITLE "0:"
    INDEX 01 00:48:24
  TRACK 58 AUDIO
    TITLE "9:cjc056_0347"
    INDEX 01 00:48:38
  TRACK 59 AUDIO
    TITLE "0:"
    INDEX 01 00:50:70
  TRACK 60 AUDIO
    TITLE "7:cjc056_0348"
    INDEX 01 00:51:48
  TRACK 61 AUDIO
    TITLE "0:"
    INDEX 01 00:53:02
  TRACK 62 AUDIO
    TITLE "8:cjc056_0349"
    INDEX 01 00:53:17
  TRACK 63 AUDIO
    TITLE "0:"
    INDEX 01 00:54:34
  TRACK 64 AUDIO
    TITLE "9:cjc056_0350"
    INDEX 01 00:54:48
  TRACK 65 AUDIO
    TITLE "0:"
    INDEX 01 00:57:60
  TRACK 66 AUDIO
    TITLE "7:cjc056_0351"
    INDEX 01 00:58:36
  TRACK 67 AUDIO
    TITLE "0:"
    INDEX 01 00:59:41
  TRACK 68 AUDIO
    TITLE "8:cjc056_0352"
    INDEX 01 00:59:53
  TRACK 69 AUDIO
    TITLE "0:"
    INDEX 01 01:02:28
  TRACK 70 AUDIO
    TITLE "9:cjc056_0353"
    INDEX 01 01:02:42
  TRACK 71 AUDIO
    TITLE "0:"
    INDEX 01 01:04:72
  TRACK 72 AUDIO
    TITLE "7:cjc056_0354"
    INDEX 01 01:05:46
  TRACK 73 AUDIO
    TITLE "0:"
    INDEX 01 01:06:49
  TRACK 74 AUDIO
    TITLE "8:cjc056_0355"
    INDEX 01 01:06:61
  TRACK 75 AUDIO
    TITLE "0:"
    INDEX 01 01:07:55
  TRACK 76 AUDIO
    TITLE "9:cjc056_0356"
    INDEX 01 01:07:68
  TRACK 77 AUDIO
    TITLE "0:"
    INDEX 01 01:10:41
  TRACK 78 AUDIO
    TITLE "7:cjc056_0357"
    INDEX 01 01:11:27
  TRACK 79 AUDIO
    TITLE "0:"
    INDEX 01 01:12:34
  TRACK 80 AUDIO
    TITLE "8:cjc056_0358"
    INDEX 01 01:12:46
  TRACK 81 AUDIO
    TITLE "0:"
    INDEX 01 01:15:54
  TRACK 82 AUDIO
    TITLE "9:cjc056_0359"
    INDEX 01 01:15:70
  TRACK 83 AUDIO
    TITLE "0:"
    INDEX 01 01:18:17
